<svg xmlns="http://www.w3.org/2000/svg" width="64" height="65" viewBox="0 0 64 65" fill="none">
  <g clip-path="url(#clip0_16_219)">
    <path d="M32 63.8203C49.397 63.8203 63.5 49.7173 63.5 32.3203C63.5 14.9233 49.397 0.820313 32 0.820313C14.603 0.820313 0.5 14.9233 0.5 32.3203C0.5 49.7173 14.603 63.8203 32 63.8203Z" fill="white" stroke="#CADBFB"/>
    <path d="M27.83 31.7378H39C39.55 31.7378 40 32.1878 40 32.7378C40 33.2878 39.55 33.7378 39 33.7378H27.83L32.71 38.6178C33.1 39.0078 33.1 39.6378 32.71 40.0278C32.32 40.4178 31.69 40.4178 31.3 40.0278L24.71 33.4378C24.32 33.0478 24.32 32.4178 24.71 32.0278L31.3 25.4378C31.4868 25.2505 31.7405 25.1453 32.005 25.1453C32.2695 25.1453 32.5232 25.2505 32.71 25.4378C33.1 25.8278 33.1 26.4678 32.71 26.8578L27.83 31.7378Z" fill="#2C71F0"/>
  </g>
  <defs>
    <clipPath id="clip0_16_219">
      <rect width="64" height="64" fill="white" transform="matrix(-1 0 0 -1 64 64.3203)"/>
    </clipPath>
  </defs>
</svg>