<svg xmlns="http://www.w3.org/2000/svg" width="57" height="57" viewBox="0 0 57 57" fill="none">
  <g clip-path="url(#clip0_16_153)">
    <mask id="mask0_16_153" style="mask-type:luminance" maskUnits="userSpaceOnUse" x="0" y="0" width="57" height="57">
      <path d="M56.9531 0.34375H0.953125V56.3438H56.9531V0.34375Z" fill="white"/>
    </mask>
    <g mask="url(#mask0_16_153)">
      <path d="M28.9531 55.8438C44.141 55.8438 56.4531 43.5316 56.4531 28.3438C56.4531 13.1559 44.141 0.84375 28.9531 0.84375C13.7653 0.84375 1.45312 13.1559 1.45312 28.3438C1.45312 43.5316 13.7653 55.8438 28.9531 55.8438Z" fill="#F78400" stroke="#01090F"/>
      <path d="M28.9537 42.2689C28.9265 42.2387 28.8979 42.2068 28.868 42.1734C28.5792 41.8507 28.1658 41.3804 27.6693 40.7916C26.676 39.6135 25.3524 37.9641 24.0298 36.0774C22.7063 34.1893 21.3904 32.0729 20.4071 29.9602C19.4205 27.8406 18.7871 25.7635 18.7871 23.9436C18.7871 18.5616 23.3146 14.177 28.9538 14.177C34.5929 14.177 39.1204 18.5616 39.1204 23.9436C39.1204 25.7635 38.487 27.8406 37.5004 29.9602C36.5171 32.0729 35.2012 34.1893 33.8777 36.0774C32.5551 37.9641 31.2315 39.6135 30.2382 40.7916C29.7417 41.3804 29.3283 41.8507 29.0395 42.1734C29.0096 42.2068 28.981 42.2387 28.9537 42.2689ZM24.6442 23.9436C24.6442 26.2616 26.5929 28.1103 28.9538 28.1103C31.3146 28.1103 33.2633 26.2616 33.2633 23.9436C33.2633 21.6256 31.3146 19.777 28.9538 19.777C26.5929 19.777 24.6442 21.6256 24.6442 23.9436Z" fill="white" stroke="#06122C"/>
    </g>
  </g>
  <defs>
    <clipPath id="clip0_16_153">
      <rect width="56" height="56" fill="white" transform="translate(0.953125 0.34375)"/>
    </clipPath>
  </defs>
</svg>