<svg xmlns="http://www.w3.org/2000/svg" width="35" height="30" viewBox="0 0 35 30" fill="none">
  <g clip-path="url(#clip0_16_190)">
    <path fill-rule="evenodd" clip-rule="evenodd" d="M16.4842 20.2835C13.4444 19.8637 10.8393 17.9984 9.32115 15.3698C4.99461 14.7328 1.66797 10.8065 1.66797 6.05262V3.89922C1.66797 3.05091 2.32585 2.35486 3.12765 2.35486H7.90332V1.12218C7.90332 0.641975 8.27061 0.257812 8.72973 0.257812H26.8497C27.3088 0.257812 27.6761 0.641975 27.6761 1.12218V2.3551H32.453C33.2547 2.3551 33.9126 3.05115 33.9126 3.89946V6.05286C33.9126 10.8062 30.5868 14.7321 26.261 15.3698C24.7435 18.0005 22.1375 19.8641 19.0964 20.2836L19.846 26.5359H21.3111C22.5856 26.5359 23.6218 27.7566 23.6218 29.2578H11.6158C11.6158 27.7566 12.652 26.5359 13.9265 26.5359H15.7346L16.4842 20.2835ZM27.6761 10.0326C27.6761 11.3421 27.444 12.5939 27.0206 13.7459C29.88 12.8347 31.9698 10.0223 31.9698 6.70541V6.05286V5.06317V4.41062C31.9698 4.05172 31.6923 3.75808 31.353 3.75808H27.6761V10.0326ZM7.90332 3.75783H4.22756C3.88833 3.75783 3.61079 4.05148 3.61079 4.41038V5.06293V6.05262V6.70517C3.61079 10.0222 5.70077 12.8347 8.56036 13.7458C8.13597 12.5932 7.90332 11.3412 7.90332 10.0326V3.75783Z" fill="#15357A"/>
  </g>
  <defs>
    <clipPath id="clip0_16_190">
      <rect width="34" height="29" fill="white" transform="translate(0.789062 0.257812)"/>
    </clipPath>
  </defs>
</svg>