<svg xmlns="http://www.w3.org/2000/svg" width="57" height="57" viewBox="0 0 57 57" fill="none">
  <g clip-path="url(#clip0_16_142)">
    <mask id="mask0_16_142" style="mask-type:luminance" maskUnits="userSpaceOnUse" x="0" y="0" width="57" height="57">
      <path d="M56.9766 0.34375H0.976562V56.3438H56.9766V0.34375Z" fill="white"/>
    </mask>
    <g mask="url(#mask0_16_142)">
      <path d="M28.9766 55.8438C44.1644 55.8438 56.4766 43.5316 56.4766 28.3438C56.4766 13.1559 44.1644 0.84375 28.9766 0.84375C13.7887 0.84375 1.47656 13.1559 1.47656 28.3438C1.47656 43.5316 13.7887 55.8438 28.9766 55.8438Z" fill="#519AF4" stroke="#01090F"/>
      <path d="M33.2065 15.1805L33.3259 15.5103H33.6766H40.6433C42.2005 15.5103 43.4766 16.7864 43.4766 18.3436V41.677C43.4766 43.2341 42.2005 44.5103 40.6433 44.5103H17.3099C15.7527 44.5103 14.4766 43.2341 14.4766 41.677V18.3436C14.4766 16.7864 15.7527 15.5103 17.3099 15.5103H24.2766H24.6273L24.7467 15.1805C25.3793 13.4333 27.0327 12.177 28.9766 12.177C30.9205 12.177 32.5739 13.4333 33.2065 15.1805ZM38.9766 42.177H39.4766V41.677V39.3436C39.4766 38.3285 38.9658 37.4664 38.2265 36.7669C37.4896 36.0697 36.4925 35.4997 35.4202 35.0493C33.2776 34.1494 30.7119 33.677 28.9766 33.677C27.2413 33.677 24.6756 34.1494 22.533 35.0493C21.4607 35.4997 20.4636 36.0697 19.7267 36.7669C18.9874 37.4664 18.4766 38.3285 18.4766 39.3436V41.677V42.177H18.9766H38.9766ZM31.1433 16.677C31.1433 15.4841 30.1694 14.5103 28.9766 14.5103C27.7838 14.5103 26.8099 15.4841 26.8099 16.677C26.8099 17.8698 27.7838 18.8436 28.9766 18.8436C30.1694 18.8436 31.1433 17.8698 31.1433 16.677ZM34.4766 26.677C34.4766 23.6341 32.0194 21.177 28.9766 21.177C25.9338 21.177 23.4766 23.6341 23.4766 26.677C23.4766 29.7198 25.9338 32.177 28.9766 32.177C32.0194 32.177 34.4766 29.7198 34.4766 26.677Z" fill="white" stroke="#06122C"/>
    </g>
  </g>
  <defs>
    <clipPath id="clip0_16_142">
      <rect width="56" height="56" fill="white" transform="translate(0.976562 0.34375)"/>
    </clipPath>
  </defs>
</svg>