<svg xmlns="http://www.w3.org/2000/svg" width="56" height="57" viewBox="0 0 56 57" fill="none">
  <g clip-path="url(#clip0_16_131)">
    <mask id="mask0_16_131" style="mask-type:luminance" maskUnits="userSpaceOnUse" x="0" y="0" width="56" height="57">
      <path d="M56 0.34375H0V56.3438H56V0.34375Z" fill="white"/>
    </mask>
    <g mask="url(#mask0_16_131)">
      <path d="M28 55.8438C43.1878 55.8438 55.5 43.5316 55.5 28.3438C55.5 13.1559 43.1878 0.84375 28 0.84375C12.8122 0.84375 0.5 13.1559 0.5 28.3438C0.5 43.5316 12.8122 55.8438 28 55.8438Z" fill="#00AC6B" stroke="#01090F"/>
      <path d="M35 20.8438C35 24.7113 31.8676 27.8438 28 27.8438C24.1324 27.8438 21 24.7113 21 20.8438C21 16.9762 24.1324 13.8438 28 13.8438C31.8676 13.8438 35 16.9762 35 20.8438ZM13.5 39.5938C13.5 38.5306 14.0286 37.5622 14.9789 36.6852C15.9325 35.805 17.277 35.0511 18.8086 34.4375C21.8726 33.2101 25.5594 32.5938 28 32.5938C30.4406 32.5938 34.1274 33.2101 37.1914 34.4375C38.723 35.0511 40.0675 35.805 41.0211 36.6852C41.9714 37.5622 42.5 38.5306 42.5 39.5938V42.8438H13.5V39.5938Z" fill="white" stroke="#06122C"/>
    </g>
  </g>
  <defs>
    <clipPath id="clip0_16_131">
      <rect width="56" height="56" fill="white" transform="translate(0 0.34375)"/>
    </clipPath>
  </defs>
</svg>