<svg xmlns="http://www.w3.org/2000/svg" width="64" height="65" viewBox="0 0 64 65" fill="none">
  <g clip-path="url(#clip0_16_615)">
    <path d="M32 0.820312C14.603 0.820312 0.5 14.9233 0.5 32.3203C0.5 49.7173 14.603 63.8203 32 63.8203C49.397 63.8203 63.5 49.7173 63.5 32.3203C63.5 14.9233 49.397 0.820312 32 0.820312Z" fill="white" stroke="#CADBFB"/>
    <path d="M36.17 32.9028H25C24.45 32.9028 24 32.4528 24 31.9028C24 31.3528 24.45 30.9028 25 30.9028H36.17L31.29 26.0228C30.9 25.6328 30.9 25.0028 31.29 24.6128C31.68 24.2228 32.31 24.2228 32.7 24.6128L39.29 31.2028C39.68 31.5928 39.68 32.2228 39.29 32.6128L32.7 39.2028C32.5132 39.3901 32.2595 39.4953 31.995 39.4953C31.7305 39.4953 31.4768 39.3901 31.29 39.2028C30.9 38.8128 30.9 38.1728 31.29 37.7828L36.17 32.9028Z" fill="#2C71F0"/>
  </g>
  <defs>
    <clipPath id="clip0_16_615">
      <rect width="64" height="64" fill="white" transform="translate(0 0.320312)"/>
    </clipPath>
  </defs>
</svg>