<svg xmlns="http://www.w3.org/2000/svg" width="29" height="31" viewBox="0 0 29 31" fill="none">
  <g clip-path="url(#clip0_16_183)">
    <path fill-rule="evenodd" clip-rule="evenodd" d="M2.48096 5.81563L14.2184 1.41406L25.956 5.81563V14.7508C25.956 22.1601 20.9529 29.0705 14.2184 30.7578C7.48406 29.0705 2.48096 22.1601 2.48096 14.7508V5.81563ZM18.5744 21.0689C18.0613 20.189 17.5479 19.3082 17.0286 18.4171C17.0138 18.4285 17.0003 18.4394 16.9875 18.4497C16.9647 18.4682 16.9438 18.485 16.9218 18.4992C16.6506 18.7042 16.4185 18.8537 16.1458 18.989C15.4187 19.3503 14.6427 19.4637 13.8359 19.3492C12.984 19.2284 12.2489 18.8634 11.6313 18.274C11.2286 17.8901 10.9283 17.4354 10.716 16.9235C10.4648 16.318 10.374 15.6591 10.4519 15.0092C10.5266 14.3683 10.7589 13.7553 11.1284 13.2237C11.498 12.6921 11.9936 12.2582 12.5721 11.9597C13.0991 11.6902 13.591 11.5382 14.2513 11.5106C14.3112 11.5094 14.4169 11.5026 14.4169 11.5026C14.4169 11.5026 15.7549 8.75754 15.8154 8.62779C13.5813 8.10515 10.1116 8.81791 8.25745 12.0407C6.64535 14.8425 7.14026 18.7349 10.1514 21.0161C12.768 22.9968 16.3025 22.789 18.5744 21.0689ZM17.0337 10.6028L16.9203 10.4924C16.8305 10.4051 16.7442 10.3213 16.6581 10.2371C16.6305 10.21 16.6032 10.1825 16.5759 10.1549C16.5316 10.1104 16.4873 10.0657 16.4414 10.0229C16.4148 9.99789 16.3835 9.96369 16.3835 9.96369C16.3835 9.96369 16.4088 9.91066 16.4196 9.88891C16.5618 9.60661 16.7847 9.40021 17.0492 9.23611C17.3416 9.05319 17.6823 8.96011 18.0282 8.96866C18.4708 8.97729 18.8823 9.08626 19.2295 9.37981C19.4859 9.59649 19.6173 9.87136 19.6405 10.1994C19.6791 10.753 19.4475 11.177 18.9875 11.4728C18.8053 11.5901 18.6135 11.6896 18.4183 11.7907C18.324 11.8396 18.2288 11.8889 18.1336 11.9408C17.9724 12.0288 17.8346 12.1061 17.6771 12.2653C17.5385 12.4251 17.5317 12.5757 17.5317 12.5757L19.6254 12.573V13.4951H16.3937V13.406C16.3813 12.9529 16.4348 12.5264 16.6446 12.1149C16.8376 11.7374 17.1376 11.461 17.498 11.2481C17.6391 11.1647 17.784 11.0877 17.9289 11.0107C18.069 10.9361 18.2092 10.8617 18.3459 10.7814C18.5175 10.6808 18.6387 10.5333 18.6378 10.3193C18.6378 10.1357 18.5026 9.97246 18.3096 9.92154C17.8545 9.80011 17.3912 9.99384 17.1504 10.4058C17.1293 10.4418 17.108 10.4777 17.0845 10.5172L17.0337 10.6028ZM19.3191 14.4238L21.0835 17.4369L19.3047 20.4669L17.569 17.468H14.0518L15.8276 14.4238H19.3191Z" fill="#15357A"/>
  </g>
  <defs>
    <clipPath id="clip0_16_183">
      <rect width="28.5" height="30" fill="white" transform="translate(0.34375 0.757812)"/>
    </clipPath>
  </defs>
</svg>