<svg xmlns="http://www.w3.org/2000/svg" width="24" height="25" viewBox="0 0 24 25" fill="none">
<path fill-rule="evenodd" clip-rule="evenodd" d="M12 2.35156C6.48 2.35156 2 6.83156 2 12.3516C2 17.8716 6.48 22.3516 12 22.3516C17.52 22.3516 22 17.8716 22 12.3516C22 6.83156 17.52 2.35156 12 2.35156ZM12 20.3516C7.59 20.3516 4 16.7616 4 12.3516C4 7.94156 7.59 4.35156 12 4.35156C16.41 4.35156 20 7.94156 20 12.3516C20 16.7616 16.41 20.3516 12 20.3516ZM10 14.5216L15.88 8.64156C16.27 8.25156 16.91 8.25156 17.3 8.64156C17.69 9.03156 17.69 9.66156 17.3 10.0516L10.71 16.6416C10.32 17.0316 9.69 17.0316 9.3 16.6416L6.71 14.0516C6.32 13.6616 6.32 13.0316 6.71 12.6416C6.89683 12.4543 7.15048 12.3491 7.415 12.3491C7.67952 12.3491 7.93317 12.4543 8.12 12.6416L10 14.5216Z" fill="#313CBD"/>
</svg>